<mxfile host="app.diagrams.net" modified="2021-09-08T11:56:28.146Z" agent="5.0 (Windows NT 10.0; Win64; x64) AppleWebKit/537.36 (KHTML, like Gecko) Chrome/93.0.4577.63 Safari/537.36 Edg/93.0.961.38" etag="crV8oJfa4ElTxJy6_rjX" version="15.1.1" type="github">
  <diagram id="4KFrmDoajesSaiCApncI" name="Page-1">
    <mxGraphModel dx="1038" dy="1825" grid="1" gridSize="10" guides="1" tooltips="1" connect="1" arrows="1" fold="1" page="1" pageScale="1" pageWidth="827" pageHeight="1169" math="0" shadow="0">
      <root>
        <mxCell id="0" />
        <mxCell id="1" parent="0" />
        <mxCell id="P5DfOAGNgwlcbuX_-_dX-7" value="" style="rounded=0;whiteSpace=wrap;html=1;" vertex="1" parent="1">
          <mxGeometry x="19" y="-584" width="790" height="204" as="geometry" />
        </mxCell>
        <mxCell id="P5DfOAGNgwlcbuX_-_dX-2" value="应用程序" style="rounded=1;whiteSpace=wrap;html=1;" vertex="1" parent="1">
          <mxGeometry x="80" y="-560" width="120" height="50" as="geometry" />
        </mxCell>
        <mxCell id="P5DfOAGNgwlcbuX_-_dX-3" value="应用程序" style="rounded=1;whiteSpace=wrap;html=1;" vertex="1" parent="1">
          <mxGeometry x="210" y="-560" width="120" height="50" as="geometry" />
        </mxCell>
        <mxCell id="P5DfOAGNgwlcbuX_-_dX-4" value="应用程序" style="rounded=1;whiteSpace=wrap;html=1;" vertex="1" parent="1">
          <mxGeometry x="490" y="-560" width="120" height="50" as="geometry" />
        </mxCell>
        <mxCell id="P5DfOAGNgwlcbuX_-_dX-5" value="应用程序" style="rounded=1;whiteSpace=wrap;html=1;" vertex="1" parent="1">
          <mxGeometry x="620" y="-560" width="120" height="50" as="geometry" />
        </mxCell>
        <mxCell id="P5DfOAGNgwlcbuX_-_dX-9" value="&lt;font style=&quot;font-size: 22px&quot;&gt;用户空间&lt;/font&gt;" style="text;html=1;strokeColor=none;fillColor=none;align=center;verticalAlign=middle;whiteSpace=wrap;rounded=0;" vertex="1" parent="1">
          <mxGeometry x="19" y="-490" width="100" height="20" as="geometry" />
        </mxCell>
        <mxCell id="P5DfOAGNgwlcbuX_-_dX-10" value="&lt;font style=&quot;font-size: 18px&quot;&gt;malloc/free new/delete&lt;/font&gt;" style="text;html=1;strokeColor=none;fillColor=none;align=center;verticalAlign=middle;whiteSpace=wrap;rounded=0;" vertex="1" parent="1">
          <mxGeometry x="290" y="-470" width="190" height="20" as="geometry" />
        </mxCell>
        <mxCell id="P5DfOAGNgwlcbuX_-_dX-11" value="&lt;font style=&quot;font-size: 29px&quot;&gt;虚拟内存管理&lt;/font&gt;" style="rounded=0;whiteSpace=wrap;html=1;" vertex="1" parent="1">
          <mxGeometry x="184" y="-340" width="460" height="70" as="geometry" />
        </mxCell>
        <mxCell id="P5DfOAGNgwlcbuX_-_dX-12" value="&lt;font style=&quot;font-size: 22px&quot;&gt;sys_brk/sys_mmap/sys_mumap&lt;/font&gt;" style="text;html=1;strokeColor=none;fillColor=none;align=center;verticalAlign=middle;whiteSpace=wrap;rounded=0;" vertex="1" parent="1">
          <mxGeometry x="210" y="-370" width="450" height="20" as="geometry" />
        </mxCell>
        <mxCell id="P5DfOAGNgwlcbuX_-_dX-13" value="&lt;font style=&quot;font-size: 23px&quot;&gt;页错误异常处理&lt;/font&gt;" style="rounded=0;whiteSpace=wrap;html=1;" vertex="1" parent="1">
          <mxGeometry x="40" y="-240" width="300" height="60" as="geometry" />
        </mxCell>
        <mxCell id="P5DfOAGNgwlcbuX_-_dX-14" value="" style="rounded=0;whiteSpace=wrap;html=1;" vertex="1" parent="1">
          <mxGeometry x="470" y="-240" width="300" height="60" as="geometry" />
        </mxCell>
      </root>
    </mxGraphModel>
  </diagram>
</mxfile>
